<?xml version="1.0" encoding="UTF-8" standalone="no"?>
<svg
   xmlns:dc="http://purl.org/dc/elements/1.1/"
   xmlns:cc="http://creativecommons.org/ns#"
   xmlns:rdf="http://www.w3.org/1999/02/22-rdf-syntax-ns#"
   xmlns:svg="http://www.w3.org/2000/svg"
   xmlns="http://www.w3.org/2000/svg"
   xmlns:sodipodi="http://sodipodi.sourceforge.net/DTD/sodipodi-0.dtd"
   xmlns:inkscape="http://www.inkscape.org/namespaces/inkscape"
   id="svg2"
   version="1.1"
   inkscape:version="0.91pre2 r13516"
   sodipodi:docname="optimised2.svg"
   x="0"
   width="300"
   height="200"
   y="0">
  <metadata
     id="metadata88">
    <rdf:RDF>
      <cc:Work
         rdf:about="">
        <dc:format>image/svg+xml</dc:format>
        <dc:type
           rdf:resource="http://purl.org/dc/dcmitype/StillImage" />
      </cc:Work>
    </rdf:RDF>
  </metadata>
  <defs
     id="defs86" />
  <sodipodi:namedview
     pagecolor="#ffffff"
     bordercolor="#666666"
     borderopacity="1"
     objecttolerance="10"
     gridtolerance="10"
     guidetolerance="10"
     inkscape:pageopacity="0"
     inkscape:pageshadow="2"
     inkscape:window-width="1680"
     inkscape:window-height="1028"
     id="namedview84"
     showgrid="false"
     inkscape:zoom="2.36"
     inkscape:cx="71.610169"
     inkscape:cy="50"
     inkscape:window-x="-8"
     inkscape:window-y="-8"
     inkscape:window-maximized="1"
     inkscape:current-layer="svg2" />
  <style
     id="style4">.s0{stroke-width:0.6;}.s1{stroke-width:0.8;}</style>
  <rect
     style="fill:#f9f9f9"
     id="rect3417"
     width="247.88136"
     height="71.610168"
     x="-1.2711865"
     y="65.254234" />
  <line
     x1="10"
     x2="242.39999"
     y1="84"
     y2="84"
     id="line6"
     style="stroke:#000000;stroke-width:0.60000002" />
  <line
     x1="10"
     x2="242.39999"
     y1="92"
     y2="92"
     id="line8"
     style="stroke:#000000;stroke-width:0.60000002" />
  <line
     x1="10"
     x2="242.39999"
     y1="100"
     y2="100"
     id="line10"
     style="stroke:#000000;stroke-width:0.60000002" />
  <line
     x1="10"
     x2="242.39999"
     y1="108"
     y2="108"
     id="line12"
     style="stroke:#000000;stroke-width:0.60000002" />
  <line
     x1="10"
     x2="242.39999"
     y1="116"
     y2="116"
     id="line14"
     style="stroke:#000000;stroke-width:0.60000002" />
  <svg
     x="13.5"
     y="68"
     id="svg16"
     version="1.1"
     inkscape:version="0.91pre2 r13516"
     width="100%"
     height="100%">
    <path
       transform="scale(0.175,0.175)"
       d="m 90,276 c -4,0 -9,-1 -13,-2 -4,-1 -7,-3 -10,-6 -3,-2 -6,-5 -7,-8 -2,-4 -3,-7 -3,-11 0,-2 0,-4 1,-6 1,-2 2,-4 3,-5 2,-2 3,-3 5,-4 2,-1 4,-2 6,-2 2,0 4,1 5,1 2,1 4,3 5,4 2,1 3,3 4,5 1,2 1,4 1,6 0,2 -1,4 -2,5 -1,2 -3,3 -5,5 -1,1 -3,2 -4,3 -1,1 -2,1 -2,2 0,4 5,6 14,6 4,0 8,-1 10,-2 3,-1 5,-3 7,-6 2,-3 3,-6 4,-11 1,-5 1,-11 1,-18 0,-4 0,-8 -1,-12 -1,-4 -2,-8 -4,-10 -1,-3 -3,-6 -5,-7 -2,-2 -4,-3 -7,-3 -9,0 -17,7 -26,22 -1,-5 -2,-9 -3,-13 -1,-4 -2,-8 -4,-10 -1,-3 -3,-6 -5,-7 -2,-2 -3,-3 -6,-3 -1,0 -2,0 -3,1 l 0,85 -7,0 0,-182 7,0 0,86 c 0,0 1,0 1,0 1,1 1,1 2,1 2,0 4,-1 6,-3 2,-2 4,-4 5,-7 2,-3 3,-7 4,-11 1,-4 2,-8 3,-12 10,13 19,19 25,19 2,0 5,-1 7,-2 2,-2 4,-4 5,-7 2,-2 3,-6 4,-9 1,-4 1,-8 1,-13 0,-7 0,-13 -1,-18 -1,-4 -2,-8 -4,-10 -2,-3 -5,-5 -8,-6 -3,-1 -7,-1 -12,-1 -9,0 -13,2 -13,5 0,1 2,2 4,3 5,2 8,4 10,6 1,2 2,4 2,7 0,2 0,3 -1,5 -1,2 -2,4 -3,5 -2,2 -3,3 -5,4 -2,1 -4,2 -6,2 -4,0 -8,-2 -11,-5 -3,-3 -5,-7 -5,-12 0,-6 2,-12 6,-18 4,-4 8,-7 12,-8 5,-1 9,-2 14,-2 7,0 13,1 18,3 6,1 10,4 14,7 4,3 7,8 9,12 2,5 3,11 3,17 0,5 -1,11 -3,16 -1,5 -4,10 -7,14 -3,4 -6,7 -10,9 -4,3 -9,4 -14,4 -9,0 -17,-2 -22,-5 l 0,0 c -2,0 -4,1 -5,4 -1,2 -2,5 -2,9 0,2 0,4 0,6 1,3 1,5 2,6 1,2 1,3 2,4 1,1 2,2 3,2 3,-3 6,-6 10,-7 3,-2 7,-3 11,-3 5,0 10,1 14,4 5,2 9,6 12,10 3,5 6,10 7,15 2,6 3,12 3,18 0,13 -4,22 -11,29 -8,7 -18,10 -32,10 z M 27,93 27,275 4,275 4,93 27,93 Z"
       id="path18"
       inkscape:connector-curvature="0"
       style="fill:#000000;stroke:none" />
  </svg>
  <svg
     x="45"
     y="64"
     id="svg20"
     version="1.1"
     inkscape:version="0.91pre2 r13516"
     width="100%"
     height="100%">
    <path
       transform="scale(0.175,0.175)"
       d="m 0.1,150.7 5.8,0 -1.3,57.4 c 3.6,-6 9.3,-9 16.9,-9 2.7,0 5.2,0.5 7.7,1.4 2.5,0.9 4.6,2.2 6.5,3.7 1.8,1.6 3.3,3.5 4.4,5.6 1.1,2.2 1.6,4.6 1.6,7.1 -0.2,3.5 -1.5,7.4 -3.9,11.8 -2.4,4.3 -6.4,8.5 -12.1,12.7 l -25.6,19 0,-109.7 z M 17,206.4 c -5.1,0 -9,2.6 -11.6,7.7 C 4.7,221 4.3,227 4.3,232 c 0,8.6 0.3,14.6 0.9,18 2.3,-1.5 4.8,-3.6 7.4,-6.5 2.6,-2.9 5,-5.9 7.2,-9.1 2.2,-3.2 4,-6.4 5.4,-9.7 1.4,-3.2 2.1,-6 2.1,-8.5 0,-2.8 -1,-5.1 -2.9,-7 -1.9,-1.9 -4.4,-2.8 -7.3,-2.8 z"
       id="path22"
       inkscape:connector-curvature="0"
       style="fill:#000000;stroke:none" />
  </svg>
  <svg
     x="53.400002"
     y="52"
     id="svg24"
     version="1.1"
     inkscape:version="0.91pre2 r13516"
     width="100%"
     height="100%">
    <path
       transform="scale(0.175,0.175)"
       d="m 0.1,150.7 5.8,0 -1.3,57.4 c 3.6,-6 9.3,-9 16.9,-9 2.7,0 5.2,0.5 7.7,1.4 2.5,0.9 4.6,2.2 6.5,3.7 1.8,1.6 3.3,3.5 4.4,5.6 1.1,2.2 1.6,4.6 1.6,7.1 -0.2,3.5 -1.5,7.4 -3.9,11.8 -2.4,4.3 -6.4,8.5 -12.1,12.7 l -25.6,19 0,-109.7 z M 17,206.4 c -5.1,0 -9,2.6 -11.6,7.7 C 4.7,221 4.3,227 4.3,232 c 0,8.6 0.3,14.6 0.9,18 2.3,-1.5 4.8,-3.6 7.4,-6.5 2.6,-2.9 5,-5.9 7.2,-9.1 2.2,-3.2 4,-6.4 5.4,-9.7 1.4,-3.2 2.1,-6 2.1,-8.5 0,-2.8 -1,-5.1 -2.9,-7 -1.9,-1.9 -4.4,-2.8 -7.3,-2.8 z"
       id="path26"
       inkscape:connector-curvature="0"
       style="fill:#000000;stroke:none" />
  </svg>
  <svg
     x="68.800003"
     y="52"
     id="svg28"
     version="1.1"
     inkscape:version="0.91pre2 r13516"
     width="100%"
     height="100%">
    <path
       transform="scale(0.175,0.175)"
       d="m 76,239 c -1,21 -8,32 -21,32 -2,0 -4,-1 -7,-2 -3,-1 -7,-2 -10,-3 -3,-1 -6,-3 -9,-4 -3,-1 -5,-1 -6,-1 -2,0 -4,0 -5,1 -1,1 -2,1 -3,2 -1,1 -2,2 -3,3 -1,0 -2,1 -3,1 -1,0 -2,-1 -2,-1 0,-4 1,-8 3,-10 2,-2 3,-5 5,-7 3,-5 8,-10 14,-14 5,-4 9,-7 11,-9 3,-2 5,-4 7,-6 1,-2 2,-4 2,-6 1,-2 1,-4 1,-6 0,-5 -1,-10 -4,-13 -3,-3 -7,-5 -12,-5 -6,0 -10,2 -12,5 2,1 5,3 7,5 2,2 3,4 3,7 0,2 0,3 -1,5 -1,1 -2,2 -3,3 -1,1 -3,2 -4,3 -2,0 -3,1 -5,1 -7,0 -11,-4 -11,-12 0,-8 3,-14 9,-19 6,-4 14,-6 25,-6 6,0 12,1 16,3 4,2 7,4 10,6 2,3 4,6 5,9 1,3 1,5 1,7 0,6 -2,11 -6,15 -1,1 -4,2 -7,4 -4,2 -8,4 -12,6 -5,2 -9,4 -13,6 -4,2 -7,4 -9,6 l 0,0 c 0,0 1,0 2,0 0,0 1,0 2,0 2,0 4,0 7,1 3,1 6,1 10,2 3,1 6,2 8,3 3,1 5,1 6,1 3,0 6,-1 7,-3 0,0 1,-1 2,-3 0,-2 2,-4 5,-7 z"
       id="path30"
       inkscape:connector-curvature="0"
       style="fill:#000000;stroke:none" />
  </svg>
  <svg
     x="68.800003"
     y="68"
     id="svg32"
     version="1.1"
     inkscape:version="0.91pre2 r13516"
     width="100%"
     height="100%">
    <path
       transform="scale(0.175,0.175)"
       d="m 66,250 0,5 c 0,1 0,1 0,2 0,0 0,1 0,1 0,2 1,4 2,4 1,1 4,2 8,2 l 1,5 -45,0 0,-5 c 6,0 9,-2 10,-3 1,-1 1,-5 1,-11 l -37,0 0,-7 c 2,-4 5,-8 8,-13 2,-5 5,-10 7,-15 2,-6 4,-11 5,-16 2,-6 3,-10 3,-15 l 31,0 c -2,8 -8,18 -19,29 -13,13 -20,22 -23,29 l 25,0 0,-21 23,-20 0,41 12,0 0,8 -12,0 z"
       id="path34"
       inkscape:connector-curvature="0"
       style="fill:#000000;stroke:none" />
  </svg>
  <line
     x1="102.4"
     x2="102.4"
     y1="100"
     y2="128"
     id="line36"
     style="stroke:#000000;stroke-width:0.80000001" />
  <line
     x1="137.39999"
     x2="137.39999"
     y1="100"
     y2="128"
     id="line38"
     style="stroke:#000000;stroke-width:0.80000001" />
  <line
     x1="159.8"
     x2="159.8"
     y1="100"
     y2="128"
     id="line40"
     style="stroke:#000000;stroke-width:0.80000001" />
  <path
     d="m 137.4,124.2 22.4,0 0,3.8 -22.4,0 0,-3.8 m 0,-6.5 22.4,0 0,3.8 -22.4,0 0,-3.8"
     id="path42"
     inkscape:connector-curvature="0"
     style="fill:#000000;stroke:#000000" />
  <line
     x1="177.3"
     x2="177.3"
     y1="100"
     y2="128"
     id="line44"
     style="stroke:#000000;stroke-width:0.80000001" />
  <line
     x1="205.3"
     x2="205.3"
     y1="100"
     y2="128"
     id="line46"
     style="stroke:#000000;stroke-width:0.80000001" />
  <svg
     x="102.4"
     y="60"
     id="svg48"
     version="1.1"
     inkscape:version="0.91pre2 r13516"
     width="100%"
     height="100%">
    <path
       transform="scale(0.175,0.175)"
       d="m 20.6,250.6 c -5.8,0 -10.7,-1.4 -14.5,-4.1 -3.9,-2.7 -5.8,-6.7 -5.8,-11.7 0,-4.1 1.3,-8.1 3.9,-11.9 2.6,-3.8 5.9,-7.2 9.9,-10.1 4,-2.9 8.5,-5.2 13.4,-7 4.9,-1.8 9.7,-2.6 14.3,-2.6 6.2,0 11.2,1.4 15,4.3 3.8,2.9 5.7,6.7 5.7,11.6 0,4 -1.3,7.9 -3.9,11.7 -2.6,3.8 -5.9,7.2 -10,10.1 -4.1,2.9 -8.5,5.3 -13.5,7.1 -4.9,1.8 -9.7,2.7 -14.5,2.7 z"
       id="path50"
       inkscape:connector-curvature="0"
       style="fill:#000000;stroke:none" />
  </svg>
  <svg
     x="93.300003"
     y="60"
     id="svg52"
     version="1.1"
     inkscape:version="0.91pre2 r13516"
     width="100%"
     height="100%">
    <path
       transform="scale(0.175,0.175)"
       d="M 31.5,208.2 14,214 l 0,31.5 17.5,-5.8 0,-31.5 z m 4.5,-43.9 0,26 9.4,-3.1 0,16.6 -9.5,3.1 0,31.5 9.5,-3.1 0,16.6 -9.5,3.1 0,28.6 -4.5,0 0,-27.3 -17.5,5.8 0,27.3 -4.5,0 0,-26 -9.5,3.1 0,-16.6 9.5,-3.1 0,-31.5 -9.4,3.1 0,-16.6 9.5,-3.1 0,-28.6 4.5,0 0,27.3 17.5,-5.8 0,-27.3 4.5,0 z"
       id="path54"
       inkscape:connector-curvature="0"
       style="fill:#000000;stroke:none" />
  </svg>
  <svg
     x="137.39999"
     y="60"
     id="svg56"
     version="1.1"
     inkscape:version="0.91pre2 r13516"
     width="100%"
     height="100%">
    <path
       transform="scale(0.175,0.175)"
       d="m 20.6,250.6 c -5.8,0 -10.7,-1.4 -14.5,-4.1 -3.9,-2.7 -5.8,-6.7 -5.8,-11.7 0,-4.1 1.3,-8.1 3.9,-11.9 2.6,-3.8 5.9,-7.2 9.9,-10.1 4,-2.9 8.5,-5.2 13.4,-7 4.9,-1.8 9.7,-2.6 14.3,-2.6 6.2,0 11.2,1.4 15,4.3 3.8,2.9 5.7,6.7 5.7,11.6 0,4 -1.3,7.9 -3.9,11.7 -2.6,3.8 -5.9,7.2 -10,10.1 -4.1,2.9 -8.5,5.3 -13.5,7.1 -4.9,1.8 -9.7,2.7 -14.5,2.7 z"
       id="path58"
       inkscape:connector-curvature="0"
       style="fill:#000000;stroke:none" />
  </svg>
  <svg
     x="159.8"
     y="60"
     id="svg60"
     version="1.1"
     inkscape:version="0.91pre2 r13516"
     width="100%"
     height="100%">
    <path
       transform="scale(0.175,0.175)"
       d="m 20.6,250.6 c -5.8,0 -10.7,-1.4 -14.5,-4.1 -3.9,-2.7 -5.8,-6.7 -5.8,-11.7 0,-4.1 1.3,-8.1 3.9,-11.9 2.6,-3.8 5.9,-7.2 9.9,-10.1 4,-2.9 8.5,-5.2 13.4,-7 4.9,-1.8 9.7,-2.6 14.3,-2.6 6.2,0 11.2,1.4 15,4.3 3.8,2.9 5.7,6.7 5.7,11.6 0,4 -1.3,7.9 -3.9,11.7 -2.6,3.8 -5.9,7.2 -10,10.1 -4.1,2.9 -8.5,5.3 -13.5,7.1 -4.9,1.8 -9.7,2.7 -14.5,2.7 z"
       id="path62"
       inkscape:connector-curvature="0"
       style="fill:#000000;stroke:none" />
  </svg>
  <svg
     x="150.7"
     y="60"
     id="svg64"
     version="1.1"
     inkscape:version="0.91pre2 r13516"
     width="100%"
     height="100%">
    <path
       transform="scale(0.175,0.175)"
       d="m 0.1,150.7 5.8,0 -1.3,57.4 c 3.6,-6 9.3,-9 16.9,-9 2.7,0 5.2,0.5 7.7,1.4 2.5,0.9 4.6,2.2 6.5,3.7 1.8,1.6 3.3,3.5 4.4,5.6 1.1,2.2 1.6,4.6 1.6,7.1 -0.2,3.5 -1.5,7.4 -3.9,11.8 -2.4,4.3 -6.4,8.5 -12.1,12.7 l -25.6,19 0,-109.7 z M 17,206.4 c -5.1,0 -9,2.6 -11.6,7.7 C 4.7,221 4.3,227 4.3,232 c 0,8.6 0.3,14.6 0.9,18 2.3,-1.5 4.8,-3.6 7.4,-6.5 2.6,-2.9 5,-5.9 7.2,-9.1 2.2,-3.2 4,-6.4 5.4,-9.7 1.4,-3.2 2.1,-6 2.1,-8.5 0,-2.8 -1,-5.1 -2.9,-7 -1.9,-1.9 -4.4,-2.8 -7.3,-2.8 z"
       id="path66"
       inkscape:connector-curvature="0"
       style="fill:#000000;stroke:none" />
  </svg>
  <svg
     x="177.3"
     y="60"
     id="svg68"
     version="1.1"
     inkscape:version="0.91pre2 r13516"
     width="100%"
     height="100%">
    <path
       transform="scale(0.175,0.175)"
       d="m 20.6,250.6 c -5.8,0 -10.7,-1.4 -14.5,-4.1 -3.9,-2.7 -5.8,-6.7 -5.8,-11.7 0,-4.1 1.3,-8.1 3.9,-11.9 2.6,-3.8 5.9,-7.2 9.9,-10.1 4,-2.9 8.5,-5.2 13.4,-7 4.9,-1.8 9.7,-2.6 14.3,-2.6 6.2,0 11.2,1.4 15,4.3 3.8,2.9 5.7,6.7 5.7,11.6 0,4 -1.3,7.9 -3.9,11.7 -2.6,3.8 -5.9,7.2 -10,10.1 -4.1,2.9 -8.5,5.3 -13.5,7.1 -4.9,1.8 -9.7,2.7 -14.5,2.7 z"
       id="path70"
       inkscape:connector-curvature="0"
       style="fill:#000000;stroke:none" />
  </svg>
  <svg
     x="205.3"
     y="60"
     id="svg72"
     version="1.1"
     inkscape:version="0.91pre2 r13516"
     width="100%"
     height="100%">
    <path
       transform="scale(0.175,0.175)"
       d="m 20.6,250.6 c -5.8,0 -10.7,-1.4 -14.5,-4.1 -3.9,-2.7 -5.8,-6.7 -5.8,-11.7 0,-4.1 1.3,-8.1 3.9,-11.9 2.6,-3.8 5.9,-7.2 9.9,-10.1 4,-2.9 8.5,-5.2 13.4,-7 4.9,-1.8 9.7,-2.6 14.3,-2.6 6.2,0 11.2,1.4 15,4.3 3.8,2.9 5.7,6.7 5.7,11.6 0,4 -1.3,7.9 -3.9,11.7 -2.6,3.8 -5.9,7.2 -10,10.1 -4.1,2.9 -8.5,5.3 -13.5,7.1 -4.9,1.8 -9.7,2.7 -14.5,2.7 z"
       id="path74"
       inkscape:connector-curvature="0"
       style="fill:#000000;stroke:none" />
  </svg>
  <svg
     x="196.2"
     y="60"
     id="svg76"
     version="1.1"
     inkscape:version="0.91pre2 r13516"
     width="100%"
     height="100%">
    <path
       transform="scale(0.175,0.175)"
       d="M 31.5,208.2 14,214 l 0,31.5 17.5,-5.8 0,-31.5 z m 4.5,-43.9 0,26 9.4,-3.1 0,16.6 -9.5,3.1 0,31.5 9.5,-3.1 0,16.6 -9.5,3.1 0,28.6 -4.5,0 0,-27.3 -17.5,5.8 0,27.3 -4.5,0 0,-26 -9.5,3.1 0,-16.6 9.5,-3.1 0,-31.5 -9.4,3.1 0,-16.6 9.5,-3.1 0,-28.6 4.5,0 0,27.3 17.5,-5.8 0,-27.3 4.5,0 z"
       id="path78"
       inkscape:connector-curvature="0"
       style="fill:#000000;stroke:none" />
  </svg>
  <line
     x1="242.39999"
     x2="242.39999"
     y1="84"
     y2="116"
     id="line80"
     style="stroke:#000000;stroke-width:1.10000002" />
  <line
     x1="10"
     x2="10"
     y1="84"
     y2="116"
     id="line82"
     style="stroke:#000000;stroke-width:1.5" />
</svg>
