<svg><style>.s0{stroke-width:0.6;}.s1{stroke-width:0.8;}</style><line x1="10" x2="242.4" y1="84" y2="84" stroke="#000" stroke-width="0.6"/><line x1="10" x2="242.4" y1="92" y2="92" stroke="#000" stroke-width="0.6"/><line x1="10" x2="242.4" y1="100" y2="100" stroke="#000" stroke-width="0.6"/><line x1="10" x2="242.4" y1="108" y2="108" stroke="#000" stroke-width="0.6"/><line x1="10" x2="242.4" y1="116" y2="116" stroke="#000" stroke-width="0.6"/><svg x="13.5" y="68"><path fill="#000" transform="matrix(0.175,0,0,0.175,0,0)" d="M90 276C86 276 81 275 77 274 73 273 70 271 67 268 64 266 61 263 60 260 58 256 57 253 57 249 57 247 57 245 58 243 59 241 60 239 61 238 63 236 64 235 66 234 68 233 70 232 72 232 74 232 76 233 77 233 79 234 81 236 82 237 84 238 85 240 86 242 87 244 87 246 87 248 87 250 86 252 85 253 84 255 82 256 80 258 79 259 77 260 76 261 75 262 74 262 74 263 74 267 79 269 88 269 92 269 96 268 98 267 101 266 103 264 105 261 107 258 108 255 109 250 110 245 110 239 110 232 110 228 110 224 109 220 108 216 107 212 105 210 104 207 102 204 100 203 98 201 96 200 93 200 84 200 76 207 67 222 66 217 65 213 64 209 63 205 62 201 60 199 59 196 57 193 55 192 53 190 52 189 49 189 48 189 47 189 46 190L46 275 39 275 39 93 46 93 46 179C46 179 47 179 47 179 48 180 48 180 49 180 51 180 53 179 55 177 57 175 59 173 60 170 62 167 63 163 64 159 65 155 66 151 67 147 77 160 86 166 92 166 94 166 97 165 99 164 101 162 103 160 104 157 106 155 107 151 108 148 109 144 109 140 109 135 109 128 109 122 108 117 107 113 106 109 104 107 102 104 99 102 96 101 93 100 89 100 84 100 75 100 71 102 71 105 71 106 73 107 75 108 80 110 83 112 85 114 86 116 87 118 87 121 87 123 87 124 86 126 85 128 84 130 83 131 81 133 80 134 78 135 76 136 74 137 72 137 68 137 64 135 61 132 58 129 56 125 56 120 56 114 58 108 62 102 66 98 70 95 74 94 79 93 83 92 88 92 95 92 101 93 106 95 112 96 116 99 120 102 124 105 127 110 129 114 131 119 132 125 132 131 132 136 131 142 129 147 128 152 125 157 122 161 119 165 116 168 112 170 108 173 103 174 98 174 89 174 81 172 76 169L76 169C74 169 72 170 71 173 70 175 69 178 69 182 69 184 69 186 69 188 70 191 70 193 71 194 72 196 72 197 73 198 74 199 75 200 76 200 79 197 82 194 86 193 89 191 93 190 97 190 102 190 107 191 111 194 116 196 120 200 123 204 126 209 129 214 130 219 132 225 133 231 133 237 133 250 129 259 122 266 114 273 104 276 90 276ZM27 93L27 275 4 275 4 93 27 93Z" stroke="none"/></svg><svg x="45" y="64"><path fill="#000" transform="matrix(0.175,0,0,0.175,0,0)" d="m0.1 150.7 5.8 0-1.3 57.4c3.6-6 9.3-9 16.9-9 2.7 0 5.2 0.5 7.7 1.4 2.5 0.9 4.6 2.2 6.5 3.7 1.8 1.6 3.3 3.5 4.4 5.6 1.1 2.2 1.6 4.6 1.6 7.1-0.2 3.5-1.5 7.4-3.9 11.8-2.4 4.3-6.4 8.5-12.1 12.7l-25.6 19 0-109.7zm16.9 55.7c-5.1 0-9 2.6-11.6 7.7-0.7 6.9-1.1 12.9-1.1 17.9 0 8.6 0.3 14.6 0.9 18 2.3-1.5 4.8-3.6 7.4-6.5 2.6-2.9 5-5.9 7.2-9.1 2.2-3.2 4-6.4 5.4-9.7 1.4-3.2 2.1-6 2.1-8.5 0-2.8-1-5.1-2.9-7-1.9-1.9-4.4-2.8-7.3-2.8z" stroke="none"/></svg><svg x="53.4" y="52"><path fill="#000" transform="matrix(0.175,0,0,0.175,0,0)" d="m0.1 150.7 5.8 0-1.3 57.4c3.6-6 9.3-9 16.9-9 2.7 0 5.2 0.5 7.7 1.4 2.5 0.9 4.6 2.2 6.5 3.7 1.8 1.6 3.3 3.5 4.4 5.6 1.1 2.2 1.6 4.6 1.6 7.1-0.2 3.5-1.5 7.4-3.9 11.8-2.4 4.3-6.4 8.5-12.1 12.7l-25.6 19 0-109.7zm16.9 55.7c-5.1 0-9 2.6-11.6 7.7-0.7 6.9-1.1 12.9-1.1 17.9 0 8.6 0.3 14.6 0.9 18 2.3-1.5 4.8-3.6 7.4-6.5 2.6-2.9 5-5.9 7.2-9.1 2.2-3.2 4-6.4 5.4-9.7 1.4-3.2 2.1-6 2.1-8.5 0-2.8-1-5.1-2.9-7-1.9-1.9-4.4-2.8-7.3-2.8z" stroke="none"/></svg><svg x="68.8" y="52"><path fill="#000" transform="matrix(0.175,0,0,0.175,0,0)" d="M76 239C75 260 68 271 55 271 53 271 51 270 48 269 45 268 41 267 38 266 35 265 32 263 29 262 26 261 24 261 23 261 21 261 19 261 18 262 17 263 16 263 15 264 14 265 13 266 12 267 11 267 10 268 9 268 8 268 7 267 7 267 7 263 8 259 10 257 12 255 13 252 15 250 18 245 23 240 29 236 34 232 38 229 40 227 43 225 45 223 47 221 48 219 49 217 49 215 50 213 50 211 50 209 50 204 49 199 46 196 43 193 39 191 34 191 28 191 24 193 22 196 24 197 27 199 29 201 31 203 32 205 32 208 32 210 32 211 31 213 30 214 29 215 28 216 27 217 25 218 24 219 22 219 21 220 19 220 12 220 8 216 8 208 8 200 11 194 17 189 23 185 31 183 42 183 48 183 54 184 58 186 62 188 65 190 68 192 70 195 72 198 73 201 74 204 74 206 74 208 74 214 72 219 68 223 67 224 64 225 61 227 57 229 53 231 49 233 44 235 40 237 36 239 32 241 29 243 27 245L27 245C27 245 28 245 29 245 29 245 30 245 31 245 33 245 35 245 38 246 41 247 44 247 48 248 51 249 54 250 56 251 59 252 61 252 62 252 65 252 68 251 69 249 69 249 70 248 71 246 71 244 73 242 76 239Z" stroke="none"/></svg><svg x="68.8" y="68"><path fill="#000" transform="matrix(0.175,0,0,0.175,0,0)" d="M66 250L66 255C66 256 66 256 66 257 66 257 66 258 66 258 66 260 67 262 68 262 69 263 72 264 76 264L77 269 32 269 32 264C38 264 41 262 42 261 43 260 43 256 43 250L6 250 6 243C8 239 11 235 14 230 16 225 19 220 21 215 23 209 25 204 26 199 28 193 29 189 29 184L60 184C58 192 52 202 41 213 28 226 21 235 18 242L43 242 43 221 66 201 66 242 78 242 78 250 66 250Z" stroke="none"/></svg><line x1="102.4" x2="102.4" y1="100" y2="128" stroke="#000" stroke-width="0.8"/><line x1="137.4" x2="137.4" y1="100" y2="128" stroke="#000" stroke-width="0.8"/><line x1="159.8" x2="159.8" y1="100" y2="128" stroke="#000" stroke-width="0.8"/><path fill="#000" d="M137.4 124.2L159.8 124.2 159.8 128 137.4 128 137.4 124.2M137.4 117.7L159.8 117.7 159.8 121.5 137.4 121.5 137.4 117.7" stroke="#000"/><line x1="177.3" x2="177.3" y1="100" y2="128" stroke="#000" stroke-width="0.8"/><line x1="205.3" x2="205.3" y1="100" y2="128" stroke="#000" stroke-width="0.8"/><svg x="102.4" y="60"><path fill="#000" transform="matrix(0.175,0,0,0.175,0,0)" d="m20.6 250.6c-5.8 0-10.7-1.4-14.5-4.1-3.9-2.7-5.8-6.7-5.8-11.7 0-4.1 1.3-8.1 3.9-11.9 2.6-3.8 5.9-7.2 9.9-10.1 4-2.9 8.5-5.2 13.4-7 4.9-1.8 9.7-2.6 14.3-2.6 6.2 0 11.2 1.4 15 4.3 3.8 2.9 5.7 6.7 5.7 11.6 0 4-1.3 7.9-3.9 11.7-2.6 3.8-5.9 7.2-10 10.1-4.1 2.9-8.5 5.3-13.5 7.1-4.9 1.8-9.7 2.7-14.5 2.7z" stroke="none"/></svg><svg x="93.3" y="60"><path fill="#000" transform="matrix(0.175,0,0,0.175,0,0)" d="m31.5 208.2-17.5 5.8 0 31.5 17.5-5.8 0-31.5zm4.5-43.9 0 26 9.4-3.1 0 16.6-9.5 3.1 0 31.5 9.5-3.1 0 16.6-9.5 3.1 0 28.6-4.5 0 0-27.3-17.5 5.8 0 27.3-4.5 0 0-26-9.5 3.1 0-16.6 9.5-3.1 0-31.5-9.4 3.1 0-16.6 9.5-3.1 0-28.6 4.5 0 0 27.3 17.5-5.8 0-27.3 4.5 0z" stroke="none"/></svg><svg x="137.4" y="60"><path fill="#000" transform="matrix(0.175,0,0,0.175,0,0)" d="m20.6 250.6c-5.8 0-10.7-1.4-14.5-4.1-3.9-2.7-5.8-6.7-5.8-11.7 0-4.1 1.3-8.1 3.9-11.9 2.6-3.8 5.9-7.2 9.9-10.1 4-2.9 8.5-5.2 13.4-7 4.9-1.8 9.7-2.6 14.3-2.6 6.2 0 11.2 1.4 15 4.3 3.8 2.9 5.7 6.7 5.7 11.6 0 4-1.3 7.9-3.9 11.7-2.6 3.8-5.9 7.2-10 10.1-4.1 2.9-8.5 5.3-13.5 7.1-4.9 1.8-9.7 2.7-14.5 2.7z" stroke="none"/></svg><svg x="159.8" y="60"><path fill="#000" transform="matrix(0.175,0,0,0.175,0,0)" d="m20.6 250.6c-5.8 0-10.7-1.4-14.5-4.1-3.9-2.7-5.8-6.7-5.8-11.7 0-4.1 1.3-8.1 3.9-11.9 2.6-3.8 5.9-7.2 9.9-10.1 4-2.9 8.5-5.2 13.4-7 4.9-1.8 9.7-2.6 14.3-2.6 6.2 0 11.2 1.4 15 4.3 3.8 2.9 5.7 6.7 5.7 11.6 0 4-1.3 7.9-3.9 11.7-2.6 3.8-5.9 7.2-10 10.1-4.1 2.9-8.5 5.3-13.5 7.1-4.9 1.8-9.7 2.7-14.5 2.7z" stroke="none"/></svg><svg x="150.7" y="60"><path fill="#000" transform="matrix(0.175,0,0,0.175,0,0)" d="m0.1 150.7 5.8 0-1.3 57.4c3.6-6 9.3-9 16.9-9 2.7 0 5.2 0.5 7.7 1.4 2.5 0.9 4.6 2.2 6.5 3.7 1.8 1.6 3.3 3.5 4.4 5.6 1.1 2.2 1.6 4.6 1.6 7.1-0.2 3.5-1.5 7.4-3.9 11.8-2.4 4.3-6.4 8.5-12.1 12.7l-25.6 19 0-109.7zm16.9 55.7c-5.1 0-9 2.6-11.6 7.7-0.7 6.9-1.1 12.9-1.1 17.9 0 8.6 0.3 14.6 0.9 18 2.3-1.5 4.8-3.6 7.4-6.5 2.6-2.9 5-5.9 7.2-9.1 2.2-3.2 4-6.4 5.4-9.7 1.4-3.2 2.1-6 2.1-8.5 0-2.8-1-5.1-2.9-7-1.9-1.9-4.4-2.8-7.3-2.8z" stroke="none"/></svg><svg x="177.3" y="60"><path fill="#000" transform="matrix(0.175,0,0,0.175,0,0)" d="m20.6 250.6c-5.8 0-10.7-1.4-14.5-4.1-3.9-2.7-5.8-6.7-5.8-11.7 0-4.1 1.3-8.1 3.9-11.9 2.6-3.8 5.9-7.2 9.9-10.1 4-2.9 8.5-5.2 13.4-7 4.9-1.8 9.7-2.6 14.3-2.6 6.2 0 11.2 1.4 15 4.3 3.8 2.9 5.7 6.7 5.7 11.6 0 4-1.3 7.9-3.9 11.7-2.6 3.8-5.9 7.2-10 10.1-4.1 2.9-8.5 5.3-13.5 7.1-4.9 1.8-9.7 2.7-14.5 2.7z" stroke="none"/></svg><svg x="205.3" y="60"><path fill="#000" transform="matrix(0.175,0,0,0.175,0,0)" d="m20.6 250.6c-5.8 0-10.7-1.4-14.5-4.1-3.9-2.7-5.8-6.7-5.8-11.7 0-4.1 1.3-8.1 3.9-11.9 2.6-3.8 5.9-7.2 9.9-10.1 4-2.9 8.5-5.2 13.4-7 4.9-1.8 9.7-2.6 14.3-2.6 6.2 0 11.2 1.4 15 4.3 3.8 2.9 5.7 6.7 5.7 11.6 0 4-1.3 7.9-3.9 11.7-2.6 3.8-5.9 7.2-10 10.1-4.1 2.9-8.5 5.3-13.5 7.1-4.9 1.8-9.7 2.7-14.5 2.7z" stroke="none"/></svg><svg x="196.2" y="60"><path fill="#000" transform="matrix(0.175,0,0,0.175,0,0)" d="m31.5 208.2-17.5 5.8 0 31.5 17.5-5.8 0-31.5zm4.5-43.9 0 26 9.4-3.1 0 16.6-9.5 3.1 0 31.5 9.5-3.1 0 16.6-9.5 3.1 0 28.6-4.5 0 0-27.3-17.5 5.8 0 27.3-4.5 0 0-26-9.5 3.1 0-16.6 9.5-3.1 0-31.5-9.4 3.1 0-16.6 9.5-3.1 0-28.6 4.5 0 0 27.3 17.5-5.8 0-27.3 4.5 0z" stroke="none"/></svg><line x1="242.4" x2="242.4" y1="84" y2="116" stroke="#000" stroke-width="1.1"/><line x1="10" x2="10" y1="84" y2="116" stroke="#000" stroke-width="1.5"/></svg>