<svg><g transform="matrix(0.5,0,0,-0.5,0,442)"><path d="M699 -271c0 -114 -82 -232 -226 -232c-145 0 -189 70 -189 111s33 87 76 87s70 -23 70 -62c0 -40 -38 -65 -43 -68c-4 -3 -15 -7 -15 -12c0 -2 1 -3 4 -6c9 -9 23 -23 64 -23c86 0 118 85 118 148v119c0 79 -16 120 -82 120s-91 -41 -107 -91c-7 -21 -15 -29 -22 -29
c-10 0 -19 15 -22 29c-27 119 -66 139 -95 142v-444c0 -12 -9 -21 -21 -21c-13 0 -22 9 -22 21v963c0 13 9 22 22 22c12 0 21 -9 21 -22v-444c29 4 68 23 95 143c3 14 12 29 22 29c7 0 15 -8 22 -29c16 -50 41 -91 107 -91s82 41 82 119v120c0 62 -32 148 -118 148
c-24 0 -46 -5 -66 -25c-2 -1 -2 -3 -2 -4c0 -6 14 -10 17 -13c9 -7 41 -31 41 -67c0 -39 -27 -62 -70 -62s-76 46 -76 87s44 111 189 111c144 0 226 -118 226 -234c0 -114 -61 -217 -207 -217c-48 0 -64 16 -78 16c-16 0 -32 -27 -41 -40c-7 -14 -11 -19 -11 -28
c0 -11 8 -19 11 -29l2 -3c9 -15 24 -38 39 -38c14 0 30 18 78 18c146 0 207 -103 207 -219zM128 480v-960c0 -12 -10 -23 -23 -23h-82c-12 0 -23 11 -23 23v960c0 12 11 23 23 23h82c13 0 23 -11 23 -23z"/></g></svg>