<svg><g transform="scale(0.5,-0.5)"><path d="M248 262h5s274 -12 278 -283v-7c0 -210 -227 -538 -534 -593c-6 -1 -18 3 -18 10c0 5 5 11 20 20c51 30 104 52 151 88c85 65 163 144 197 245c23 70 35 147 35 221c0 19 0 38 -2 56c-6 57 -20 126 -59 171c-23 25 -61 39 -94 39c0 0 -109 -3 -155 -106c0 0 -1 -3 -1 -7
c0 -8 3 -21 24 -21h7c6 1 14 1 22 1c43 0 107 -16 107 -105c0 -61 -35 -100 -96 -101h-5c-58 0 -116 49 -127 139c-1 5 -1 9 -1 14c0 92 96 219 246 219zM624 -67c31 0 56 -25 56 -56c0 -30 -25 -56 -56 -56c-30 0 -55 26 -55 56c0 31 25 56 55 56zM624 177
c31 0 56 -25 56 -55c0 -31 -25 -56 -56 -56c-30 0 -55 25 -55 56c0 30 25 55 55 55z"/></g></svg>