<svg><g transform="scale(0.5,-0.5)"><path d="M258 -741c-6 -12 -12 -16 -19 -16c-3 0 -5 1 -8 2c-6 2 -13 10 -13 23c0 3 0 5 1 8c5 29 8 57 8 85c0 49 -9 96 -31 141c-65 133 -133 135 -191 137h-5v376s10 1 16 1s17 -2 19 -12c16 -101 69 -116 120 -171c69 -74 93 -100 103 -165c2 -11 3 -22 3 -34
c0 -58 -21 -115 -24 -121c-1 -2 -1 -4 -1 -6c0 -4 1 -6 1 -9c17 -35 28 -74 28 -114v-20c0 -46 -3 -100 -7 -105zM198 -421c2 -3 4 -4 7 -4c5 0 11 3 12 6c5 7 5 17 7 24c1 7 1 13 1 19c0 31 -9 60 -26 85c-31 46 -82 99 -140 99h-8c-7 0 -13 -5 -13 -9c0 -1 0 -2 1 -3
c20 -78 63 -100 108 -152c20 -22 36 -41 51 -65z"/></g></svg>