<svg><g transform="matrix(0.5,0,0,-0.5,0,442)"><path d="M255 756c5 -8 21 -73 21 -123v-11c-4 -65 -9 -76 -24 -103l-3 -6c-1 -3 -2 -5 -2 -7s0 -4 2 -8c0 0 1 -2 1 -3c5 -11 21 -53 21 -103c0 -13 -1 -27 -4 -41c-12 -65 -35 -93 -105 -170c-53 -57 -111 -74 -128 -181c-2 -8 -15 -19 -21 -19c-7 0 -13 13 -13 13v389
c62 3 126 5 204 143c23 41 31 72 31 100c0 34 -12 65 -20 111c-1 3 -1 6 -1 9c0 13 7 22 14 25c2 0 3 1 5 1c7 0 16 -4 22 -16zM206 445c-17 -25 -34 -45 -54 -68c-46 -53 -92 -77 -114 -157c0 -5 5 -13 15 -13h8c61 0 112 53 145 102c17 25 27 53 27 83c0 9 -1 19 -3 28
c0 6 -2 15 -4 23c-1 3 -7 6 -12 6c-3 0 -6 -1 -8 -4z"/></g></svg>