<svg><g transform="scale(0.5,-0.5)"><path d="M34 -164c0 -4 -4 -7 -10 -7h-14c-6 0 -10 3 -10 7v323c0 4 4 8 10 8h14c6 0 10 -4 10 -8v-323zM97 -164c0 -4 -5 -7 -10 -7h-14c-6 0 -10 3 -10 7v323c0 4 4 8 10 8h14c5 0 10 -4 10 -8v-323zM332 134c102 0 224 -58 224 -136c0 -75 -57 -137 -235 -137
c-161 0 -223 66 -223 137c0 75 90 136 234 136zM218 66c-2 -8 -3 -16 -3 -25c0 -35 17 -72 37 -98c7 -8 15 -17 23 -24c15 -13 33 -23 52 -29c10 -3 19 -4 29 -4c11 0 22 1 32 4c27 7 43 26 48 53c1 6 2 13 2 20c0 66 -60 145 -134 145c-34 0 -74 -5 -86 -42zM592 -164
c0 -4 -5 -7 -10 -7h-15c-5 0 -10 3 -10 7v323c0 4 5 8 10 8h15c5 0 10 -4 10 -8v-323zM655 -164c0 -4 -5 -7 -11 -7h-14c-5 0 -11 3 -11 7v323c0 4 6 8 11 8h14c6 0 11 -4 11 -8v-323z"/></g></svg>