<svg><g transform="scale(0.5,-0.5)"><path d="M233 -161c11 -12 37 -45 37 -57c0 -3 -2 -4 -5 -4c-2 0 -4 0 -7 1c-1 0 -2 1 -3 1c-16 6 -49 17 -78 17c-6 0 -11 0 -16 -1c-32 -6 -47 -41 -47 -72c0 -9 1 -18 4 -26c2 -9 13 -36 26 -36c8 -7 16 -15 16 -24c0 -2 -1 -4 -2 -7c-1 -4 -8 -6 -15 -6c-8 0 -18 3 -26 9
c-73 56 -116 105 -116 155c0 53 39 96 82 96c5 0 11 -3 16 -3c4 -1 10 -3 16 -3c5 0 9 1 11 5c1 1 1 3 1 4c0 5 -4 10 -6 14c-13 21 -27 40 -43 60l-49 60s-10 10 -10 24c0 8 4 19 14 29c45 47 60 90 60 127c0 72 -57 123 -61 134c-3 6 -4 11 -4 16c0 14 10 21 20 21
c6 0 13 -3 18 -8c17 -17 165 -193 165 -193s4 -9 4 -19c0 -5 -1 -10 -4 -15c-26 -41 -62 -89 -66 -147c0 -4 -1 -9 -1 -13c0 -56 31 -93 69 -139z"/></g></svg>