<svg><g transform="scale(0.5,-0.5)"><path d="M154 -98l4 -4c10 -11 15 -26 15 -41c0 -10 -2 -21 -7 -30c-6 -12 -25 -24 -25 -38c0 -10 13 -15 33 -15c21 0 80 6 83 190v5c0 13 -4 20 -9 20c-2 0 -4 0 -6 -2c-26 -23 -59 -35 -91 -35c-31 0 -62 11 -89 31c-32 24 -57 59 -61 99c0 5 -1 9 -1 14c0 45 23 90 58 118
c36 29 86 36 131 36c25 0 55 -3 80 -14c39 -17 73 -58 94 -96c22 -40 30 -92 31 -138v-4c0 -47 -17 -100 -39 -142c-36 -68 -107 -105 -183 -106c-26 0 -55 3 -79 13c-30 11 -58 35 -63 68c-1 4 -1 7 -1 11c0 33 24 64 55 73c8 2 16 4 24 4c17 0 33 -6 46 -17zM192 -1
c32 0 58 50 58 112s-26 112 -58 112s-59 -50 -59 -112s27 -112 59 -112z"/></g></svg>